<?xml version="1.0" encoding="UTF-8" standalone="no"?>
<svg
   width="300"
   height="100"
   viewBox="0 0 79.374998 26.458334"
   id="svg375"
   version="1.1"
   xmlns:xlink="http://www.w3.org/1999/xlink"
   xmlns="http://www.w3.org/2000/svg"
   xmlns:svg="http://www.w3.org/2000/svg">
  <defs
     id="defs369">
    <linearGradient
       id="linearGradient1">
      <stop
         style="stop-color:#009fe3;stop-opacity:1;"
         offset="0"
         id="stop1" />
      <stop
         style="stop-color:#10a589;stop-opacity:1;"
         offset="1"
         id="stop2" />
    </linearGradient>
    <linearGradient
       xlink:href="#linearGradient1"
       id="linearGradient2"
       x1="2.0008392"
       y1="283.74893"
       x2="76.338974"
       y2="283.74893"
       gradientUnits="userSpaceOnUse" />
    <linearGradient
       xlink:href="#linearGradient1"
       id="linearGradient3"
       gradientUnits="userSpaceOnUse"
       x1="2.0008392"
       y1="283.74893"
       x2="76.338974"
       y2="283.74893" />
    <linearGradient
       xlink:href="#linearGradient1"
       id="linearGradient4"
       gradientUnits="userSpaceOnUse"
       x1="2.0008392"
       y1="283.74893"
       x2="76.338974"
       y2="283.74893" />
    <linearGradient
       xlink:href="#linearGradient1"
       id="linearGradient5"
       gradientUnits="userSpaceOnUse"
       x1="2.0008392"
       y1="283.74893"
       x2="76.338974"
       y2="283.74893" />
    <linearGradient
       xlink:href="#linearGradient1"
       id="linearGradient6"
       gradientUnits="userSpaceOnUse"
       x1="2.0008392"
       y1="283.74893"
       x2="76.338974"
       y2="283.74893" />
    <linearGradient
       xlink:href="#linearGradient1"
       id="linearGradient7"
       gradientUnits="userSpaceOnUse"
       x1="2.0008392"
       y1="283.74893"
       x2="76.338974"
       y2="283.74893" />
    <linearGradient
       xlink:href="#linearGradient1"
       id="linearGradient8"
       gradientUnits="userSpaceOnUse"
       x1="2.0008392"
       y1="283.74893"
       x2="76.338974"
       y2="283.74893" />
    <linearGradient
       xlink:href="#linearGradient1"
       id="linearGradient9"
       gradientUnits="userSpaceOnUse"
       x1="2.0008392"
       y1="283.74893"
       x2="76.338974"
       y2="283.74893" />
    <linearGradient
       xlink:href="#linearGradient1"
       id="linearGradient10"
       gradientUnits="userSpaceOnUse"
       x1="2.0008392"
       y1="283.74893"
       x2="76.338974"
       y2="283.74893" />
    <linearGradient
       xlink:href="#linearGradient1"
       id="linearGradient11"
       gradientUnits="userSpaceOnUse"
       x1="2.0008392"
       y1="283.74893"
       x2="76.338974"
       y2="283.74893" />
    <linearGradient
       xlink:href="#linearGradient1"
       id="linearGradient12"
       gradientUnits="userSpaceOnUse"
       x1="2.0008392"
       y1="283.74893"
       x2="76.338974"
       y2="283.74893" />
    <linearGradient
       xlink:href="#linearGradient1"
       id="linearGradient13"
       gradientUnits="userSpaceOnUse"
       x1="2.0008392"
       y1="283.74893"
       x2="76.338974"
       y2="283.74893" />
    <linearGradient
       xlink:href="#linearGradient1"
       id="linearGradient14"
       gradientUnits="userSpaceOnUse"
       x1="2.0008392"
       y1="283.74893"
       x2="76.338974"
       y2="283.74893" />
    <linearGradient
       xlink:href="#linearGradient1"
       id="linearGradient15"
       gradientUnits="userSpaceOnUse"
       x1="2.0008392"
       y1="283.74893"
       x2="76.338974"
       y2="283.74893" />
    <linearGradient
       xlink:href="#linearGradient1"
       id="linearGradient16"
       gradientUnits="userSpaceOnUse"
       x1="2.0008392"
       y1="283.74893"
       x2="76.338974"
       y2="283.74893" />
    <linearGradient
       xlink:href="#linearGradient1"
       id="linearGradient17"
       gradientUnits="userSpaceOnUse"
       x1="2.0008392"
       y1="283.74893"
       x2="76.338974"
       y2="283.74893" />
    <linearGradient
       xlink:href="#linearGradient1"
       id="linearGradient18"
       gradientUnits="userSpaceOnUse"
       x1="2.0008392"
       y1="283.74893"
       x2="76.338974"
       y2="283.74893" />
    <linearGradient
       xlink:href="#linearGradient1"
       id="linearGradient19"
       gradientUnits="userSpaceOnUse"
       x1="2.0008392"
       y1="283.74893"
       x2="76.338974"
       y2="283.74893" />
    <linearGradient
       xlink:href="#linearGradient1"
       id="linearGradient20"
       gradientUnits="userSpaceOnUse"
       x1="2.0008392"
       y1="283.74893"
       x2="76.338974"
       y2="283.74893" />
    <linearGradient
       xlink:href="#linearGradient1"
       id="linearGradient21"
       gradientUnits="userSpaceOnUse"
       x1="2.0008392"
       y1="283.74893"
       x2="76.338974"
       y2="283.74893" />
    <linearGradient
       xlink:href="#linearGradient1"
       id="linearGradient22"
       gradientUnits="userSpaceOnUse"
       x1="2.0008392"
       y1="283.74893"
       x2="76.338974"
       y2="283.74893" />
    <linearGradient
       xlink:href="#linearGradient1"
       id="linearGradient23"
       gradientUnits="userSpaceOnUse"
       x1="2.0008392"
       y1="283.74893"
       x2="76.338974"
       y2="283.74893" />
    <linearGradient
       xlink:href="#linearGradient1"
       id="linearGradient24"
       gradientUnits="userSpaceOnUse"
       x1="2.0008392"
       y1="283.74893"
       x2="76.338974"
       y2="283.74893" />
    <linearGradient
       xlink:href="#linearGradient1"
       id="linearGradient25"
       gradientUnits="userSpaceOnUse"
       x1="2.0008392"
       y1="283.74893"
       x2="76.338974"
       y2="283.74893" />
    <linearGradient
       xlink:href="#linearGradient1"
       id="linearGradient26"
       gradientUnits="userSpaceOnUse"
       x1="2.0008392"
       y1="283.74893"
       x2="76.338974"
       y2="283.74893" />
    <linearGradient
       xlink:href="#linearGradient1"
       id="linearGradient27"
       gradientUnits="userSpaceOnUse"
       x1="2.0008392"
       y1="283.74893"
       x2="76.338974"
       y2="283.74893" />
    <linearGradient
       xlink:href="#linearGradient1"
       id="linearGradient28"
       gradientUnits="userSpaceOnUse"
       x1="2.0008392"
       y1="283.74893"
       x2="76.338974"
       y2="283.74893" />
  </defs>
  <metadata
     id="metadata1" />
  <g
     id="layer1"
     transform="translate(0,-270.54167)"
     style="fill:url(#linearGradient2)">
    <g
       transform="translate(-44.783638,-143.95601)"
       id="g329"
       style="fill:url(#linearGradient27)">
      <path
         id="path145-3-7"
         d="m 53.50467,433.78339 c -0.877283,-0.52843 -1.666812,-1.02726 -1.754543,-1.10852 -0.204485,-0.18938 -0.21325,-0.56549 -0.01775,-0.76101 0.289033,-0.28904 0.523985,-0.20534 2.083922,0.74242 l 1.455351,0.88423 2.678746,-1.54762 2.678735,-1.5476 -0.02461,-1.735 -0.02461,-1.735 0.172854,-0.20092 c 0.229408,-0.26672 0.578446,-0.27607 0.797535,-0.0213 0.14787,0.1719 0.15661,0.26417 0.203419,2.148 0.04137,1.66469 0.03293,1.99274 -0.05459,2.12628 -0.133206,0.20327 -6.22643,3.72301 -6.439079,3.71951 -0.08825,-9.7e-4 -0.878288,-0.435 -1.75556,-0.96343 z m -5.149153,-1.09269 c -0.122287,-0.0374 -0.376396,-0.1715 -0.564772,-0.29826 -0.992631,-0.66796 -1.284332,-1.85617 -0.724909,-2.95279 0.716928,-1.40534 2.623638,-1.62512 3.701196,-0.42664 0.995728,1.10751 0.642013,2.88292 -0.706021,3.5436 -0.386078,0.18921 -1.291382,0.26039 -1.705494,0.13409 z m 1.285373,-1.19367 c 0.264797,-0.15272 0.514181,-0.51534 0.574101,-0.83473 0.06488,-0.34587 -0.138482,-0.83326 -0.445338,-1.06731 -0.358391,-0.27336 -0.955932,-0.31036 -1.29169,-0.08 -0.358965,0.24631 -0.518599,0.50395 -0.556473,0.89804 -0.09083,0.94524 0.889023,1.56298 1.7194,1.08399 z m -0.891348,-4.04383 -0.207216,-0.20723 0.0024,-1.97266 c 0.0012,-1.43839 0.02558,-2.00334 0.08863,-2.08595 0.135984,-0.17837 6.246492,-3.67934 6.421831,-3.67934 0.0934,0 1.145985,0.58701 2.070495,1.13111 0.670693,0.39474 1.273951,0.76692 1.394635,0.87608 0.198303,0.1793 0.210862,0.53661 0.02693,0.76386 -0.251624,0.31073 -0.488352,0.22994 -2.0555,-0.70135 l -1.443794,-0.85801 -0.333896,0.19169 c -0.183651,0.10539 -1.390914,0.79776 -2.682787,1.53856 l -2.348878,1.34691 -0.0024,1.71331 c -0.0012,0.94231 -0.02265,1.76494 -0.04688,1.82804 -0.04958,0.12925 -0.385247,0.32221 -0.560464,0.32221 -0.06329,0 -0.208562,-0.0933 -0.322524,-0.20723 z m 11.878122,-1.57102 c -0.708787,-0.0906 -1.385785,-0.58731 -1.715483,-1.25868 -0.277049,-0.56415 -0.281677,-1.35482 -0.01224,-1.93155 0.236006,-0.50341 0.616185,-0.88358 1.119569,-1.11958 0.323773,-0.15179 0.499504,-0.18567 0.963154,-0.18571 0.713304,-7e-5 1.22079,0.22473 1.69302,0.74998 0.997405,1.10935 0.645294,2.87528 -0.710489,3.56325 -0.304762,0.15466 -0.909955,0.23709 -1.338473,0.18229 z m 0.687047,-1.14026 c 0.386092,-0.11568 0.744739,-0.53079 0.80483,-0.93153 0.06108,-0.40807 -0.138102,-0.88124 -0.47124,-1.11884 -0.323185,-0.2305 -1.017577,-0.2435 -1.310846,-0.0245 -0.320052,0.23896 -0.470432,0.49581 -0.505808,0.86397 -0.05497,0.57185 0.273059,1.05824 0.826827,1.22606 0.262899,0.0797 0.346211,0.0778 0.656237,-0.0151 z"
         style="font-style:normal;font-variant:normal;font-weight:normal;font-stretch:normal;font-size:4.88105px;line-height:1.25;font-family:System-ui;-inkscape-font-specification:System-ui;letter-spacing:0px;word-spacing:0px;fill:url(#linearGradient3);fill-opacity:1;stroke:none;stroke-width:0.00865051" />
      <g
         aria-label="Secretaría de"
         style="font-style:normal;font-variant:normal;font-weight:normal;font-stretch:normal;font-size:8.30762px;line-height:1.25;font-family:System-ui;-inkscape-font-specification:System-ui;letter-spacing:0px;word-spacing:0px;fill:url(#linearGradient16);fill-opacity:1;stroke:none;stroke-width:0.0253437"
         id="text256"
         transform="matrix(0.8842497,0,0,0.8842497,-11.198318,281.4028)">
        <path
           d="m 90.136135,158.35896 q 0,0.5314 -0.267727,0.89242 -0.267726,0.35697 -0.726105,0.53951 -0.45838,0.17848 -1.038453,0.17848 -0.361025,0 -0.657146,-0.0365 -0.292065,-0.0325 -0.531396,-0.0893 -0.235274,-0.0568 -0.429984,-0.1298 V 159.296 q 0.316403,0.1217 0.730162,0.21499 0.417815,0.0893 0.908646,0.0893 0.462436,0 0.819404,-0.13387 0.361025,-0.13386 0.567904,-0.40564 0.20688,-0.27179 0.20688,-0.68554 0,-0.36508 -0.174428,-0.5963 -0.170371,-0.23528 -0.51517,-0.40159 -0.344799,-0.17037 -0.868082,-0.3448 -0.365081,-0.12575 -0.665259,-0.26367 -0.296121,-0.14198 -0.507057,-0.32452 -0.210935,-0.18659 -0.324516,-0.44621 -0.109525,-0.26367 -0.109525,-0.62063 0,-0.49084 0.247444,-0.82347 0.251501,-0.33668 0.677429,-0.50705 0.429984,-0.17443 0.965436,-0.17443 0.425928,0 0.807235,0.0811 0.385363,0.0771 0.742332,0.23527 l -0.146033,0.36103 q -0.356968,-0.15415 -0.713936,-0.22716 -0.356968,-0.073 -0.705824,-0.073 -0.417815,0 -0.746388,0.12575 -0.324516,0.12169 -0.51517,0.36914 -0.190653,0.24744 -0.190653,0.62469 0,0.38942 0.174428,0.62875 0.178484,0.23933 0.503,0.39754 0.328573,0.1582 0.774783,0.30829 0.52734,0.17848 0.908647,0.37725 0.381307,0.19471 0.588186,0.49488 0.210936,0.30018 0.210936,0.7829 z"
           style="font-style:normal;font-variant:normal;font-weight:300;font-stretch:normal;font-family:'Open Sans';-inkscape-font-specification:'Open Sans Light';fill:url(#linearGradient4);stroke-width:0.0253437"
           id="path6555" />
        <path
           d="m 92.967541,155.39369 q 0.563848,0 0.937042,0.26367 0.37725,0.26367 0.559791,0.72205 0.186597,0.45838 0.186597,1.05062 v 0.29612 h -3.184318 q 0,0.90865 0.417815,1.39542 0.421871,0.48678 1.204767,0.48678 0.409702,0 0.70988,-0.0649 0.304234,-0.069 0.673372,-0.23122 v 0.37725 q -0.324517,0.14603 -0.649033,0.21093 -0.324517,0.069 -0.746388,0.069 -0.669316,0 -1.123639,-0.27584 -0.450266,-0.27989 -0.681484,-0.78695 -0.227162,-0.50705 -0.227162,-1.18448 0,-0.66121 0.219049,-1.18854 0.223105,-0.52734 0.649033,-0.83158 0.429984,-0.30829 1.054678,-0.30829 z m -0.0041,0.35291 q -0.632807,0 -1.026284,0.42187 -0.389419,0.41782 -0.458379,1.20883 h 2.746221 q 0,-0.48272 -0.13792,-0.85186 -0.137919,-0.36914 -0.417815,-0.57196 -0.275839,-0.20688 -0.705823,-0.20688 z"
           style="font-style:normal;font-variant:normal;font-weight:300;font-stretch:normal;font-family:'Open Sans';-inkscape-font-specification:'Open Sans Light';fill:url(#linearGradient5);stroke-width:0.0253437"
           id="path6557" />
        <path
           d="m 97.62841,159.96937 q -0.657146,0 -1.111469,-0.27178 -0.450267,-0.27584 -0.681485,-0.78289 -0.227161,-0.51112 -0.227161,-1.20883 0,-0.7261 0.263669,-1.24127 0.26367,-0.51923 0.742332,-0.79507 0.478662,-0.27584 1.123638,-0.27584 0.316404,0 0.588187,0.0568 0.271782,0.0568 0.490831,0.1582 l -0.109524,0.36103 q -0.227162,-0.10141 -0.482719,-0.15415 -0.255557,-0.0527 -0.490831,-0.0527 -0.543565,0 -0.924872,0.23933 -0.377251,0.23527 -0.580073,0.67337 -0.198767,0.43404 -0.198767,1.02628 0,0.55574 0.170371,0.98572 0.170372,0.42593 0.523283,0.67338 0.352912,0.24338 0.90459,0.24338 0.32046,0 0.608469,-0.0649 0.292064,-0.0649 0.531395,-0.16632 v 0.3732 q -0.214992,0.0973 -0.498944,0.1582 -0.279895,0.0649 -0.64092,0.0649 z"
           style="font-style:normal;font-variant:normal;font-weight:300;font-stretch:normal;font-family:'Open Sans';-inkscape-font-specification:'Open Sans Light';fill:url(#linearGradient6);stroke-width:0.0253437"
           id="path6559" />
        <path
           d="m 101.56317,155.4018 q 0.17443,0 0.32858,0.0203 0.15414,0.0203 0.288,0.0568 l -0.0649,0.37725 q -0.13386,-0.0365 -0.27178,-0.0527 -0.13792,-0.0203 -0.29612,-0.0203 -0.31235,0 -0.55979,0.11764 -0.24339,0.11764 -0.41376,0.33668 -0.17037,0.21905 -0.25962,0.52734 -0.0892,0.30829 -0.0892,0.6896 v 2.43387 h -0.413757 v -4.40936 h 0.352917 l 0.0406,0.83157 h 0.0243 q 0.10141,-0.25556 0.28395,-0.45838 0.1866,-0.20688 0.45027,-0.32857 0.26367,-0.1217 0.60035,-0.1217 z"
           style="font-style:normal;font-variant:normal;font-weight:300;font-stretch:normal;font-family:'Open Sans';-inkscape-font-specification:'Open Sans Light';fill:url(#linearGradient7);stroke-width:0.0253437"
           id="path6561" />
        <path
           d="m 104.71098,155.39369 q 0.56385,0 0.93704,0.26367 0.37725,0.26367 0.5598,0.72205 0.18659,0.45838 0.18659,1.05062 v 0.29612 h -3.18432 q 0,0.90865 0.41782,1.39542 0.42187,0.48678 1.20477,0.48678 0.4097,0 0.70988,-0.0649 0.30423,-0.069 0.67337,-0.23122 v 0.37725 q -0.32452,0.14603 -0.64903,0.21093 -0.32452,0.069 -0.74639,0.069 -0.66932,0 -1.12364,-0.27584 -0.45027,-0.27989 -0.68149,-0.78695 -0.22716,-0.50705 -0.22716,-1.18448 0,-0.66121 0.21905,-1.18854 0.22311,-0.52734 0.64903,-0.83158 0.42999,-0.30829 1.05468,-0.30829 z m -0.004,0.35291 q -0.63281,0 -1.02629,0.42187 -0.38942,0.41782 -0.45838,1.20883 h 2.74622 q 0,-0.48272 -0.13791,-0.85186 -0.13792,-0.36914 -0.41782,-0.57196 -0.27584,-0.20688 -0.70582,-0.20688 z"
           style="font-style:normal;font-variant:normal;font-weight:300;font-stretch:normal;font-family:'Open Sans';-inkscape-font-specification:'Open Sans Light';fill:url(#linearGradient8);stroke-width:0.0253437"
           id="path6563" />
        <path
           d="m 108.79583,159.61646 q 0.19066,0 0.35292,-0.0284 0.16631,-0.0284 0.29206,-0.073 v 0.34074 q -0.12981,0.0446 -0.30423,0.0771 -0.17443,0.0365 -0.38537,0.0365 -0.37319,0 -0.62063,-0.13792 -0.24745,-0.14197 -0.3732,-0.42592 -0.12575,-0.28801 -0.12575,-0.73017 v -2.85574 h -0.65715 v -0.24339 l 0.65309,-0.12575 0.14198,-1.03845 h 0.27178 v 1.06685 h 1.37514 v 0.34074 h -1.37514 v 2.83141 q 0,0.4746 0.17443,0.72204 0.17848,0.24339 0.58007,0.24339 z"
           style="font-style:normal;font-variant:normal;font-weight:300;font-stretch:normal;font-family:'Open Sans';-inkscape-font-specification:'Open Sans Light';fill:url(#linearGradient9);stroke-width:0.0253437"
           id="path6565" />
        <path
           d="m 111.92336,155.4018 q 0.72611,0 1.08713,0.36508 0.36103,0.36509 0.36103,1.16421 v 2.95715 h -0.31641 l -0.073,-0.77072 h -0.0243 q -0.14198,0.24744 -0.3448,0.44215 -0.20282,0.19066 -0.49894,0.30018 -0.29207,0.10952 -0.71394,0.10952 -0.42593,0 -0.73016,-0.14197 -0.30018,-0.14198 -0.4665,-0.41376 -0.16225,-0.27178 -0.16225,-0.6612 0,-0.65715 0.54356,-0.99789 0.54357,-0.3448 1.56174,-0.38942 l 0.8194,-0.0406 v -0.32046 q 0,-0.67742 -0.26772,-0.96543 -0.26773,-0.28801 -0.79101,-0.28801 -0.34075,0 -0.65715,0.0892 -0.31235,0.0852 -0.63686,0.24744 l -0.12981,-0.34074 q 0.3164,-0.15009 0.67743,-0.24744 0.36508,-0.0974 0.76261,-0.0974 z m 1.03846,2.24322 -0.77073,0.0325 q -0.83969,0.0406 -1.27779,0.30017 -0.43809,0.25962 -0.43809,0.77884 0,0.41782 0.25961,0.64092 0.26367,0.22311 0.73016,0.22311 0.72611,0 1.10742,-0.41376 0.38536,-0.41376 0.38942,-1.12769 z"
           style="font-style:normal;font-variant:normal;font-weight:300;font-stretch:normal;font-family:'Open Sans';-inkscape-font-specification:'Open Sans Light';fill:url(#linearGradient10);stroke-width:0.0253437"
           id="path6567" />
        <path
           d="m 116.53961,155.4018 q 0.17443,0 0.32857,0.0203 0.15415,0.0203 0.28801,0.0568 l -0.0649,0.37725 q -0.13387,-0.0365 -0.27179,-0.0527 -0.13791,-0.0203 -0.29612,-0.0203 -0.31234,0 -0.55979,0.11764 -0.24338,0.11764 -0.41376,0.33668 -0.17037,0.21905 -0.25961,0.52734 -0.0892,0.30829 -0.0892,0.6896 v 2.43387 h -0.41376 v -4.40936 h 0.35291 l 0.0406,0.83157 h 0.0243 q 0.10141,-0.25556 0.28395,-0.45838 0.18659,-0.20688 0.45026,-0.32857 0.26367,-0.1217 0.60036,-0.1217 z"
           style="font-style:normal;font-variant:normal;font-weight:300;font-stretch:normal;font-family:'Open Sans';-inkscape-font-specification:'Open Sans Light';fill:url(#linearGradient11);stroke-width:0.0253437"
           id="path6569" />
        <path
           d="m 118.42586,159.88824 h -0.4097 v -4.40936 h 0.4097 z m 0.98166,-6.36458 v 0.069 q -0.0974,0.12981 -0.23933,0.29613 -0.14197,0.16225 -0.30829,0.33668 -0.16631,0.17443 -0.33668,0.33669 -0.17037,0.16226 -0.32858,0.29206 h -0.29206 v -0.069 q 0.16226,-0.16226 0.35697,-0.38536 0.19471,-0.22716 0.36913,-0.45838 0.17849,-0.23528 0.29207,-0.41782 z"
           style="font-style:normal;font-variant:normal;font-weight:300;font-stretch:normal;font-family:'Open Sans';-inkscape-font-specification:'Open Sans Light';fill:url(#linearGradient12);stroke-width:0.0253437"
           id="path6571" />
        <path
           d="m 121.43575,155.4018 q 0.72611,0 1.08713,0.36508 0.36103,0.36509 0.36103,1.16421 v 2.95715 h -0.3164 l -0.073,-0.77072 h -0.0243 q -0.14198,0.24744 -0.3448,0.44215 -0.20282,0.19066 -0.49894,0.30018 -0.29207,0.10952 -0.71394,0.10952 -0.42593,0 -0.73016,-0.14197 -0.30018,-0.14198 -0.46649,-0.41376 -0.16226,-0.27178 -0.16226,-0.6612 0,-0.65715 0.54356,-0.99789 0.54357,-0.3448 1.56174,-0.38942 l 0.8194,-0.0406 v -0.32046 q 0,-0.67742 -0.26772,-0.96543 -0.26773,-0.28801 -0.79101,-0.28801 -0.34074,0 -0.65715,0.0892 -0.31234,0.0852 -0.63686,0.24744 l -0.12981,-0.34074 q 0.31641,-0.15009 0.67743,-0.24744 0.36508,-0.0974 0.76261,-0.0974 z m 1.03846,2.24322 -0.77073,0.0325 q -0.83969,0.0406 -1.27778,0.30017 -0.4381,0.25962 -0.4381,0.77884 0,0.41782 0.25961,0.64092 0.26367,0.22311 0.73016,0.22311 0.72611,0 1.10742,-0.41376 0.38536,-0.41376 0.38942,-1.12769 z"
           style="font-style:normal;font-variant:normal;font-weight:300;font-stretch:normal;font-family:'Open Sans';-inkscape-font-specification:'Open Sans Light';fill:url(#linearGradient13);stroke-width:0.0253437"
           id="path6573" />
        <path
           d="m 128.05183,159.96937 q -0.90459,0 -1.37919,-0.5679 -0.47055,-0.57196 -0.47055,-1.66315 0,-1.14392 0.49894,-1.74427 0.49895,-0.60036 1.39137,-0.60036 0.3813,0 0.6612,0.11764 0.28395,0.11764 0.47461,0.32046 0.19471,0.19876 0.30017,0.45432 h 0.0325 q -0.0162,-0.21499 -0.0243,-0.46243 -0.008,-0.24745 -0.008,-0.45433 v -1.79295 h 0.40971 v 6.31184 h -0.33263 l -0.0527,-0.80723 h -0.0243 q -0.10952,0.24339 -0.30423,0.44621 -0.19065,0.20282 -0.47866,0.32452 -0.28801,0.11763 -0.69366,0.11763 z m 0.0446,-0.35696 q 0.77884,0 1.10742,-0.48272 0.32857,-0.48678 0.32857,-1.38731 v -0.0649 q 0,-0.93299 -0.32857,-1.42788 -0.32858,-0.49894 -1.07091,-0.49894 -0.73422,0 -1.12364,0.51111 -0.38536,0.51112 -0.38536,1.48467 0,0.91675 0.36102,1.39136 0.36509,0.47461 1.11147,0.47461 z"
           style="font-style:normal;font-variant:normal;font-weight:300;font-stretch:normal;font-family:'Open Sans';-inkscape-font-specification:'Open Sans Light';fill:url(#linearGradient14);stroke-width:0.0253437"
           id="path6575" />
        <path
           d="m 133.06967,155.39369 q 0.56385,0 0.93704,0.26367 0.37725,0.26367 0.55979,0.72205 0.1866,0.45838 0.1866,1.05062 v 0.29612 h -3.18432 q 0,0.90865 0.41782,1.39542 0.42187,0.48678 1.20476,0.48678 0.40971,0 0.70988,-0.0649 0.30424,-0.069 0.67337,-0.23122 v 0.37725 q -0.32451,0.14603 -0.64903,0.21093 -0.32451,0.069 -0.74639,0.069 -0.66931,0 -1.12363,-0.27584 -0.45027,-0.27989 -0.68149,-0.78695 -0.22716,-0.50705 -0.22716,-1.18448 0,-0.66121 0.21905,-1.18854 0.2231,-0.52734 0.64903,-0.83158 0.42999,-0.30829 1.05468,-0.30829 z m -0.004,0.35291 q -0.6328,0 -1.02628,0.42187 -0.38942,0.41782 -0.45838,1.20883 h 2.74622 q 0,-0.48272 -0.13792,-0.85186 -0.13792,-0.36914 -0.41781,-0.57196 -0.27584,-0.20688 -0.70583,-0.20688 z"
           style="font-style:normal;font-variant:normal;font-weight:300;font-stretch:normal;font-family:'Open Sans';-inkscape-font-specification:'Open Sans Light';fill:url(#linearGradient15);stroke-width:0.0253437"
           id="path6577" />
      </g>
      <g
         aria-label="Extensión"
         style="font-style:normal;font-variant:normal;font-weight:normal;font-stretch:normal;font-size:13.1926px;line-height:1.25;font-family:System-ui;-inkscape-font-specification:System-ui;letter-spacing:0px;word-spacing:0px;fill:url(#linearGradient26);fill-opacity:1;stroke:none;stroke-width:0.040246"
         id="text260"
         transform="matrix(0.89415167,0,0,0.89415167,-12.054694,279.34563)">
        <path
           d="m 91.615238,171.96489 h -5.423896 v -9.41774 h 5.423896 v 1.63619 h -3.426974 v 2.06778 h 3.188632 v 1.63619 h -3.188632 v 2.42851 h 3.426974 z"
           style="font-style:normal;font-variant:normal;font-weight:bold;font-stretch:normal;font-family:'Open Sans';-inkscape-font-specification:'Open Sans Bold';fill:url(#linearGradient17);stroke-width:0.040246"
           id="path6580" />
        <path
           d="m 94.900495,168.28669 -2.319005,-3.5236 h 2.228822 l 1.397845,2.29324 1.410728,-2.29324 h 2.228822 l -2.344772,3.5236 2.45428,3.6782 h -2.235263 l -1.513795,-2.46716 -1.520237,2.46716 h -2.228822 z"
           style="font-style:normal;font-variant:normal;font-weight:bold;font-stretch:normal;font-family:'Open Sans';-inkscape-font-specification:'Open Sans Bold';fill:url(#linearGradient18);stroke-width:0.040246"
           id="path6582" />
        <path
           d="m 104.08633,170.52839 q 0.32209,0 0.62485,-0.0644 0.3092,-0.0644 0.61196,-0.16104 v 1.46226 q -0.31565,0.14171 -0.78589,0.2319 -0.4638,0.0966 -1.01778,0.0966 -0.64417,0 -1.15951,-0.20613 -0.50889,-0.21258 -0.80521,-0.72791 -0.28987,-0.52178 -0.28987,-1.44938 v -3.47207 h -0.94049 v -0.83097 l 1.0822,-0.65705 0.56687,-1.52024 h 1.25613 v 1.53312 h 2.01625 v 1.47514 h -2.01625 v 3.47207 q 0,0.41227 0.2319,0.6184 0.23834,0.19969 0.62484,0.19969 z"
           style="font-style:normal;font-variant:normal;font-weight:bold;font-stretch:normal;font-family:'Open Sans';-inkscape-font-specification:'Open Sans Bold';fill:url(#linearGradient19);stroke-width:0.040246"
           id="path6584" />
        <path
           d="m 109.74857,164.62781 q 0.99846,0 1.71993,0.38651 0.72147,0.38005 1.11441,1.10796 0.39294,0.72791 0.39294,1.77791 v 0.95337 h -4.64445 q 0.0322,0.83097 0.49601,1.30766 0.47024,0.47024 1.30122,0.47024 0.68926,0 1.26257,-0.14172 0.57331,-0.14171 1.17883,-0.42515 v 1.52024 q -0.53466,0.26411 -1.12085,0.3865 -0.57976,0.12239 -1.41073,0.12239 -1.08221,0 -1.91962,-0.39938 -0.83098,-0.39939 -1.30767,-1.21748 -0.47024,-0.81809 -0.47024,-2.06134 0,-1.26257 0.42515,-2.09998 0.4316,-0.84387 1.19816,-1.26257 0.76656,-0.42516 1.78434,-0.42516 z m 0.0129,1.39785 q -0.57331,0 -0.95336,0.36718 -0.37362,0.36717 -0.4316,1.15306 h 2.75704 q -0.006,-0.43804 -0.16104,-0.77945 -0.14816,-0.34141 -0.45092,-0.5411 -0.29631,-0.19969 -0.76012,-0.19969 z"
           style="font-style:normal;font-variant:normal;font-weight:bold;font-stretch:normal;font-family:'Open Sans';-inkscape-font-specification:'Open Sans Bold';fill:url(#linearGradient20);stroke-width:0.040246"
           id="path6586" />
        <path
           d="m 118.66386,164.62781 q 1.15306,0 1.8552,0.63129 0.70214,0.62484 0.70214,2.0098 v 4.69599 h -1.96471 v -4.20642 q 0,-0.773 -0.28343,-1.16594 -0.27699,-0.39295 -0.87607,-0.39295 -0.90184,0 -1.23036,0.61196 -0.32853,0.61196 -0.32853,1.76503 v 3.38832 h -1.96471 v -7.2018 h 1.50091 l 0.26411,0.92116 h 0.10951 q 0.2319,-0.37362 0.57331,-0.60552 0.34785,-0.2319 0.76656,-0.34141 0.42515,-0.10951 0.87607,-0.10951 z"
           style="font-style:normal;font-variant:normal;font-weight:bold;font-stretch:normal;font-family:'Open Sans';-inkscape-font-specification:'Open Sans Bold';fill:url(#linearGradient21);stroke-width:0.040246"
           id="path6588" />
        <path
           d="m 128.2684,169.82625 q 0,0.73435 -0.34785,1.24325 -0.34141,0.50245 -1.02423,0.76656 -0.68281,0.25766 -1.7006,0.25766 -0.75368,0 -1.29478,-0.0966 -0.53466,-0.0966 -1.0822,-0.32209 v -1.6233 q 0.58619,0.26411 1.25613,0.43803 0.67637,0.16749 1.18527,0.16749 0.57331,0 0.81809,-0.16749 0.25123,-0.17392 0.25123,-0.45091 0,-0.18037 -0.10307,-0.32209 -0.0966,-0.14816 -0.42515,-0.32852 -0.32853,-0.18681 -1.03067,-0.48313 -0.67638,-0.28343 -1.11441,-0.57331 -0.43159,-0.28987 -0.64417,-0.68282 -0.20613,-0.39938 -0.20613,-1.01134 0,-0.99846 0.773,-1.50091 0.77944,-0.5089 2.08066,-0.5089 0.66994,0 1.27545,0.13528 0.61196,0.13528 1.25613,0.43159 l -0.59263,1.41717 q -0.53466,-0.2319 -1.01135,-0.38006 -0.47024,-0.14816 -0.95981,-0.14816 -0.43159,0 -0.65061,0.11595 -0.21901,0.11596 -0.21901,0.3543 0,0.17392 0.10951,0.3092 0.11595,0.13527 0.43803,0.30276 0.32853,0.16104 0.95981,0.41871 0.61196,0.25122 1.06288,0.52821 0.45092,0.27055 0.6957,0.67638 0.24478,0.39938 0.24478,1.03711 z"
           style="font-style:normal;font-variant:normal;font-weight:bold;font-stretch:normal;font-family:'Open Sans';-inkscape-font-specification:'Open Sans Bold';fill:url(#linearGradient22);stroke-width:0.040246"
           id="path6590" />
        <path
           d="m 131.76624,164.76309 v 7.2018 h -1.96472 v -7.2018 z m -0.97914,-2.82146 q 0.43804,0 0.75368,0.20614 0.31564,0.19969 0.31564,0.75367 0,0.54755 -0.31564,0.76012 -0.31564,0.20614 -0.75368,0.20614 -0.44447,0 -0.76012,-0.20614 -0.3092,-0.21257 -0.3092,-0.76012 0,-0.55398 0.3092,-0.75367 0.31565,-0.20614 0.76012,-0.20614 z"
           style="font-style:normal;font-variant:normal;font-weight:bold;font-stretch:normal;font-family:'Open Sans';-inkscape-font-specification:'Open Sans Bold';fill:url(#linearGradient23);stroke-width:0.040246"
           id="path6592" />
        <path
           d="m 140.37232,168.35111 q 0,0.90183 -0.24478,1.59753 -0.23834,0.6957 -0.70214,1.17883 -0.45736,0.47669 -1.10797,0.72147 -0.64417,0.24478 -1.45582,0.24478 -0.76012,0 -1.39785,-0.24478 -0.63128,-0.24478 -1.10153,-0.72147 -0.4638,-0.48313 -0.72146,-1.17883 -0.25123,-0.6957 -0.25123,-1.59753 0,-1.19816 0.42515,-2.02913 0.42515,-0.83098 1.21104,-1.26257 0.78588,-0.4316 1.87453,-0.4316 1.01134,0 1.79078,0.4316 0.78589,0.43159 1.23036,1.26257 0.45092,0.83097 0.45092,2.02913 z m -4.97942,0 q 0,0.70858 0.1546,1.19171 0.1546,0.48312 0.48313,0.72791 0.32853,0.24478 0.85674,0.24478 0.52178,0 0.84386,-0.24478 0.32853,-0.24479 0.47669,-0.72791 0.1546,-0.48313 0.1546,-1.19171 0,-0.71503 -0.1546,-1.18527 -0.14816,-0.47669 -0.47669,-0.71503 -0.32852,-0.23834 -0.85674,-0.23834 -0.77944,0 -1.13374,0.53466 -0.34785,0.53466 -0.34785,1.60398 z m 4.02605,-6.49322 v 0.13528 q -0.1868,0.18036 -0.48956,0.44447 -0.30276,0.26411 -0.65061,0.55399 -0.34785,0.28343 -0.68282,0.54754 -0.33497,0.25767 -0.58619,0.43159 h -1.30767 v -0.17392 q 0.21258,-0.24479 0.48957,-0.57975 0.28344,-0.34141 0.56043,-0.70215 0.27699,-0.36073 0.4638,-0.65705 z"
           style="font-style:normal;font-variant:normal;font-weight:bold;font-stretch:normal;font-family:'Open Sans';-inkscape-font-specification:'Open Sans Bold';fill:url(#linearGradient24);stroke-width:0.040246"
           id="path6594" />
        <path
           d="m 146.08609,164.62781 q 1.15307,0 1.85521,0.63129 0.70214,0.62484 0.70214,2.0098 v 4.69599 h -1.96471 v -4.20642 q 0,-0.773 -0.28343,-1.16594 -0.277,-0.39295 -0.87607,-0.39295 -0.90184,0 -1.23036,0.61196 -0.32853,0.61196 -0.32853,1.76503 v 3.38832 h -1.96471 v -7.2018 h 1.50091 l 0.26411,0.92116 h 0.10951 q 0.2319,-0.37362 0.57331,-0.60552 0.34785,-0.2319 0.76656,-0.34141 0.42515,-0.10951 0.87606,-0.10951 z"
           style="font-style:normal;font-variant:normal;font-weight:bold;font-stretch:normal;font-family:'Open Sans';-inkscape-font-specification:'Open Sans Bold';fill:url(#linearGradient25);stroke-width:0.040246"
           id="path6596" />
      </g>
    </g>
    <text
       xml:space="preserve"
       style="font-style:normal;font-variant:normal;font-weight:normal;font-stretch:normal;font-size:3.43482px;line-height:1.25;font-family:System-ui;-inkscape-font-specification:System-ui;letter-spacing:0px;word-spacing:0px;fill:url(#linearGradient28);fill-opacity:1;stroke:none;stroke-width:0.0858705"
       x="15.151216"
       y="294.24921"
       id="text6551"><tspan
         id="tspan6549"
         x="15.151216"
         y="294.24921"
         style="font-style:normal;font-variant:normal;font-weight:300;font-stretch:normal;font-family:'Open Sans';-inkscape-font-specification:'Open Sans Light';fill:url(#linearGradient28);stroke-width:0.0858705">FACULDAD DE INFORMÁTICA - UNLP</tspan></text>
  </g>
</svg>
